<svg width="170" height="48" viewBox="0 0 170 48" fill="none" xmlns="http://www.w3.org/2000/svg">
<g clip-path="url(#clip0_151_15767)">
<path d="M22.6894 10.9082C25.6074 18.3126 20.8506 23.0643 16.1128 27.8248C11.702 32.6872 7.81688 37.7425 15.6311 46.8412C12.7108 39.439 17.4692 34.6844 22.2033 29.9305C26.6177 25.0556 30.5029 20.0077 22.6894 10.9082Z" fill="#7D8693"/>
<path d="M15.6312 1.44141C18.5529 8.84797 13.7976 13.5975 9.05538 18.3543C4.64605 23.2226 0.762415 28.2779 8.57881 37.3744C5.65784 29.9671 10.4154 25.2184 15.1525 20.4615C19.5647 15.5932 23.4447 10.5394 15.6312 1.44141ZM135.532 30.7634V45.8969H142.16V40.357H149.443V37.0438H142.16V34.0766H156.607V45.8969H163.236V34.0766H169.241V30.7626M121.311 42.6123V39.9889H129.955V36.675H121.311V34.0759H132.412V30.7634H114.683V45.8962H132.549V42.613" fill="#7D8693"/>
<path d="M51.4052 30.7625H33.0391V34.0757H38.9081V45.896H45.5361V34.0757H51.4052M56.4245 40.1611L59.4906 34.3037L62.4263 40.1611H56.4245ZM64.4924 30.7617H57.3879L49.1147 45.8952H53.4229L54.7829 43.2969H64.0723L65.4279 45.8952H72.7685" fill="#7D8693"/>
<path d="M106.554 30.7625V38.3266L95.9533 30.7625H90.8086V45.8952H95.3455V37.5685L106.229 45.8945H111.089V30.7617" fill="#7D8693"/>
<path d="M88.5561 30.7617H70.5742V34.0749H76.4426V45.8952H83.072V34.0749H88.5561" fill="#7D8693"/>
</g>
<defs>
<clipPath id="clip0_151_15767">
<rect width="168.478" height="46.5" fill="white" transform="translate(0.761719 0.890625)"/>
</clipPath>
</defs>
</svg>
