<svg width="124" height="60" viewBox="0 0 124 60" fill="none" xmlns="http://www.w3.org/2000/svg">
<path d="M38.6455 18.8827H46.3978V21.4157H42.71V39.2133H38.6455V18.8827ZM50.9939 31.581L51.6905 21.4157H51.9238L52.6204 31.581H50.9939ZM46.4928 39.2133H50.4724L50.8488 33.814H52.7653L53.1435 39.2133H57.1213L55.0016 18.8827H48.6124L46.4928 39.2133ZM62.9423 32.0977V35.9304C62.9423 36.447 63.3422 36.597 63.5755 36.597C63.9587 36.597 64.2254 36.2804 64.2254 35.9304V31.198C64.2254 30.5646 64.1087 29.8648 62.5923 29.8648H60.9424V27.6318H62.6589C63.8088 27.6318 64.2254 27.3651 64.2254 26.1152V22.0823C64.2254 21.7323 63.9587 21.4157 63.5753 21.4157C63.3422 21.4157 62.9423 21.549 62.9423 22.0823V25.3985H58.876V22.5157C58.876 21.0991 59.0426 18.8827 61.8921 18.8827H65.2584C68.108 18.8827 68.2914 21.0991 68.2914 22.5157V25.765C68.2914 27.9815 66.7416 28.5815 65.5251 28.5313V28.7314C68.258 28.6648 68.2914 30.7643 68.2914 31.481V35.5805C68.2914 37.0136 68.108 39.2133 65.2584 39.2133H61.8921C59.0426 39.2133 58.876 37.0134 58.876 35.5804V32.0977H62.9423ZM70.9578 18.8827H80.3732V39.2133H76.3071V21.4157H75.0239V39.2133H70.9578V18.8827ZM87.1056 30.0646V21.4159H87.639C88.0721 21.4159 88.3887 21.7822 88.3887 22.4323V29.048C88.3887 29.6981 88.0721 30.0645 87.6388 30.0645L87.1056 30.0646ZM83.0395 39.2133H87.1056V32.2976H89.4384C92.2715 32.2976 92.4549 30.0979 92.4549 28.6646V22.5157C92.4549 21.0991 92.2715 18.8827 89.4386 18.8827H83.0395V39.2133ZM100.47 35.9304C100.47 36.2804 100.204 36.597 99.8205 36.597C99.587 36.597 99.1873 36.447 99.1873 35.9304V22.0823C99.1873 21.549 99.5872 21.4157 99.8205 21.4157C100.204 21.4157 100.47 21.7323 100.47 22.0823V35.9304ZM95.1211 35.5805C95.1211 37.0136 95.3043 39.2133 98.1374 39.2133H101.52C104.353 39.2133 104.537 37.0134 104.537 35.5804V22.5157C104.537 21.0991 104.353 18.8827 101.52 18.8827H98.1374C95.3045 18.8827 95.1211 21.0991 95.1211 22.5157V35.5805ZM117.768 18.8827H123.067V39.2133H119.001V26.4651H118.851L116.751 39.2133H113.502L111.419 26.4651H111.269V39.2133H107.203V18.8827H112.485L115.135 33.1808L117.768 18.8827ZM33.3762 11.3838C32.1315 5.93453 29.0118 1.50187 28.5818 0.785156C27.9019 1.8016 25.414 5.71796 24.1492 10.0506C22.7676 14.8999 22.5644 19.1993 23.0412 23.4154C23.5144 27.6482 25.3023 31.9977 25.3023 31.9977C26.2523 34.264 27.6753 36.7135 28.602 37.9135C29.96 36.1471 33.0813 30.881 34.0545 24.0154C34.5961 20.1825 34.6194 16.8331 33.3762 11.3838ZM28.5818 36.5471C27.9704 35.3972 27.0204 33.214 26.9304 29.8145C26.907 26.5484 28.2185 23.732 28.602 23.1489C28.9435 23.7322 30.0733 26.1817 30.2083 29.5313C30.2999 32.7975 29.2134 35.3803 28.5818 36.5471ZM33.0147 20.6324C32.968 22.7155 32.7196 24.9153 32.403 26.2318C32.5163 23.9654 32.2448 20.7825 31.7247 18.2829C31.2048 15.7998 29.7333 11.6338 28.5587 9.71728C27.4738 11.5505 26.1372 15.1499 25.4373 18.2662C24.7341 21.3823 24.7142 25.1652 24.7142 26.2984C24.5274 25.3484 24.0608 21.9324 24.1925 18.5162C24.3025 15.6999 24.9623 12.7837 25.324 11.4504C26.7038 7.00108 28.2652 4.15145 28.5585 3.70141C28.8519 4.15145 30.8182 7.66769 31.8381 11.3504C32.8531 15.0333 33.058 18.5659 33.0147 20.6324Z" fill="#7D8693"/>
<path d="M30.6938 39.1801H21.2301V45.5292C21.2386 45.5292 21.2452 45.5125 21.2535 45.5125C23.4832 43.2796 27.0995 43.2796 29.3308 45.5125C31.5605 47.729 31.5605 51.3451 29.3308 53.5782C29.3207 53.5947 29.3107 53.5947 29.3008 53.6114C29.2891 53.6114 29.2774 53.6281 29.2674 53.6448C27.0427 55.8445 24.1365 56.9443 21.2301 56.9443C18.3106 56.9443 15.391 55.8445 13.1647 53.6114C9.23843 49.6952 8.77349 43.6127 11.7664 39.1801C12.1773 38.5702 12.6455 38.0011 13.1647 37.4803C15.391 35.2474 18.3106 34.1474 21.2301 34.1474V18.8828C10.0117 18.8828 0.917969 27.9649 0.917969 39.1801C0.917969 50.3952 10.0117 59.494 21.2301 59.494C27.0793 59.494 32.3487 57.0109 36.0547 53.0615V39.1801H30.6938ZM123.068 45.1532H38.6461V59.494H123.068V45.1532ZM115.768 55.1646H116.839V52.9999H115.768V55.1646ZM115.768 51.3765H117.388L118.474 51.9177L118.741 52.4588L119.009 53.5412V54.0823C118.981 57.9593 116.487 56.54 113.865 56.7882V47.859H115.768V51.3765ZM101.689 47.859V49.4824H100.336V56.7882H98.1799V49.4824H96.8271V47.859H101.689ZM81.945 54.3529H82.2127L82.7483 54.0823V50.2941H81.945V54.3529ZM79.7747 50.2943H78.9572V54.0823L79.5068 54.3529H79.7747V50.2943ZM81.945 47.859V48.6707H83.298L84.1012 49.2118L84.6508 49.753L84.9185 50.8354V53.8118L84.6509 54.8942L84.1012 55.4352L83.298 55.9763H81.945V56.788H79.7747V55.9763H78.4217L77.6044 55.4352L77.0689 54.8942L76.8012 53.8118V50.8354L77.0687 49.753L77.6044 49.2118L78.4217 48.6707H79.7747V47.859H81.945ZM64.3515 47.859V49.4824H62.7281V51.3765H64.3515V52.9999H62.7281V55.1646H64.6222V56.788H60.5634V47.859H64.3515ZM44.8696 51.3765H45.952V47.859H47.846V56.7882H45.952V52.9999H44.8696V56.7882H42.7049V47.859H44.8696V51.3765Z" fill="#7D8693"/>
</svg>
