<svg width="249" height="63" viewBox="0 0 249 63" fill="none" xmlns="http://www.w3.org/2000/svg">
<g clip-path="url(#clip0_2038_11726)">
<path d="M93.9225 25.1407H87.4145V11.1573C87.4543 10.7878 87.3513 10.4171 87.1267 10.121C86.8422 9.90014 86.4838 9.79708 86.1254 9.83319H81.5799C81.2216 9.79708 80.8631 9.90014 80.5787 10.121C80.3538 10.417 80.2508 10.7878 80.2908 11.1573V25.1407H73.7828V7.90457C73.77 7.5193 73.8361 7.13548 73.9771 6.7767C74.1181 6.41792 74.3309 6.09176 74.6026 5.81826C75.4548 5.1756 76.5202 4.8824 77.5812 4.99851H90.1842C91.2467 4.89089 92.3094 5.20056 93.1478 5.86207C93.4095 6.13175 93.6134 6.45199 93.747 6.80319C93.8806 7.15438 93.9412 7.52916 93.925 7.90457V25.1407H93.9225Z" fill="black"/>
<path d="M118.407 15.0688C118.438 16.5239 118.332 17.9787 118.091 19.4141C117.862 20.8748 117.183 22.2277 116.148 23.2838C114.988 24.2724 113.562 24.8978 112.048 25.0823C108.914 25.4659 105.745 25.4659 102.61 25.0823C101.097 24.8978 99.6712 24.2724 98.5105 23.2838C97.4757 22.2277 96.7967 20.8748 96.5681 19.4141C96.3267 17.9788 96.2207 16.5239 96.2514 15.0688C96.2202 13.604 96.3261 12.1396 96.5681 10.6946C96.7947 9.2344 97.4798 7.88403 98.5242 6.83867C99.6781 5.86799 101.086 5.24899 102.582 5.05524C105.735 4.67169 108.924 4.67169 112.077 5.05524C113.572 5.24885 114.981 5.86787 116.135 6.83867C117.179 7.88391 117.865 9.23427 118.092 10.6946C118.333 12.1397 118.439 13.6041 118.407 15.0688ZM111.732 15.0688C111.748 14.3485 111.719 13.6278 111.645 12.9111C111.548 12.3133 111.322 11.7437 110.983 11.2416C110.621 10.6759 110.086 10.2419 109.458 10.0038C108.764 9.82235 108.047 9.74474 107.33 9.77352C106.613 9.74705 105.897 9.82462 105.202 10.0038C104.568 10.2313 104.031 10.6678 103.678 11.2416C103.082 12.4243 102.822 13.7483 102.927 15.0688C102.826 16.3889 103.086 17.7117 103.678 18.896C104.031 19.4698 104.568 19.9064 105.202 20.1337C105.897 20.3129 106.613 20.3905 107.33 20.364C108.047 20.3933 108.764 20.3156 109.458 20.1337C110.086 19.8961 110.621 19.462 110.983 18.896C111.583 17.7145 111.842 16.3892 111.732 15.0688Z" fill="black"/>
<path d="M142.608 25.1406H135.702L130.839 11.8181C130.685 11.4918 130.58 11.3287 130.522 11.3287C130.484 11.3287 130.378 11.4918 130.206 11.8181L125.343 25.1406H118.438L126.178 6.84571C126.754 5.46485 128.202 4.77441 130.524 4.77441C132.845 4.77441 134.293 5.46485 134.869 6.84571L142.608 25.1406Z" fill="black"/>
<path d="M165.139 25.1402H158.521L158.808 13.3144C158.828 12.8138 158.732 12.5635 158.521 12.5635C158.405 12.5635 158.155 12.8897 157.77 13.5422L152.044 23.3255C151.577 24.0304 150.925 24.5936 150.16 24.9537C149.395 25.3139 148.546 25.4571 147.705 25.368C147.004 25.4448 146.294 25.3457 145.641 25.0796C144.988 24.8134 144.412 24.3886 143.964 23.8436C143.395 22.8378 143.134 21.6873 143.213 20.5345V4.99924H149.832L149.545 16.5371V16.8575C149.545 17.3181 149.66 17.5484 149.89 17.5484C150.005 17.5484 150.197 17.3085 150.466 16.8287L156.02 7.13186C156.447 6.36823 157.082 5.74132 157.851 5.32379C158.62 4.90625 159.492 4.71518 160.365 4.77272C163.549 4.77272 165.141 6.43183 165.141 9.75007V25.1439L165.139 25.1402Z" fill="black"/>
<path d="M187.207 10.0042H180.01V25.1402H173.502V10.0042H166.309V4.99805H187.198V10.0042H187.207Z" fill="black"/>
<path d="M208.036 25.1403H201.188L199.605 20.9978H192.353L190.77 25.1403H183.922L191.375 7.21461C191.628 6.48598 192.111 5.85951 192.751 5.42992C193.747 4.92454 194.86 4.69629 195.974 4.76911C196.882 4.72957 197.788 4.85683 198.65 5.14457C199.094 5.34272 199.494 5.62839 199.825 5.9845C200.156 6.3406 200.412 6.75983 200.577 7.21711L208.036 25.1403ZM198.052 16.3934L196.239 11.3009C196.144 11.013 196.057 10.8691 195.98 10.8691C195.904 10.8691 195.817 11.013 195.721 11.3009L193.909 16.3934H198.052Z" fill="black"/>
<path d="M216.008 25.1402H209.5V4.99805H216.008V25.1402ZM231.747 25.1402H223.921L217.821 17.3419C217.172 16.6545 216.758 15.7776 216.641 14.8389C216.715 14.015 217.036 13.2327 217.562 12.5949L222.973 4.9993H230.683L223.691 13.3145C223.263 13.7159 222.971 14.241 222.856 14.8163C222.998 15.5226 223.372 16.1609 223.92 16.6286L231.747 25.1402Z" fill="black"/>
<path d="M248.806 25.1402H239.886C238.536 25.183 237.186 25.0278 235.881 24.6797C234.744 24.3067 233.743 23.6061 233.002 22.666C231.774 21.1316 231.16 18.6857 231.16 15.3282C231.16 11.6837 231.744 9.11309 232.912 7.61626C234.293 5.87162 236.643 4.99888 239.962 4.99805H248.479V10.0042H243.097C242.172 9.96856 241.246 10.0361 240.335 10.2057C239.946 10.2863 239.579 10.4514 239.261 10.6893C238.943 10.9272 238.68 11.232 238.493 11.5824C237.98 12.7202 237.753 13.9661 237.831 15.2118C237.75 16.3467 237.917 17.4856 238.32 18.5497C238.524 18.9097 238.805 19.2199 239.143 19.458C239.482 19.6961 239.869 19.856 240.276 19.9263C241.245 20.0934 242.229 20.1609 243.211 20.1278H248.793L248.806 25.1402Z" fill="black"/>
<path d="M74.199 42V34.3H80.832V42H79.754V34.971L80.018 35.257H75.013L75.288 34.971V42H74.199ZM86.1482 42.066C85.6642 42.066 85.2205 41.956 84.8172 41.736C84.4212 41.5087 84.1022 41.175 83.8602 40.735C83.6255 40.295 83.5082 39.745 83.5082 39.085C83.5082 38.425 83.6218 37.875 83.8492 37.435C84.0838 36.995 84.3992 36.665 84.7952 36.445C85.1985 36.225 85.6495 36.115 86.1482 36.115C86.7202 36.115 87.2262 36.2397 87.6662 36.489C88.1062 36.7383 88.4545 37.0867 88.7112 37.534C88.9678 37.974 89.0962 38.491 89.0962 39.085C89.0962 39.679 88.9678 40.1997 88.7112 40.647C88.4545 41.0943 88.1062 41.4427 87.6662 41.692C87.2262 41.9413 86.7202 42.066 86.1482 42.066ZM83.0572 44.134V36.17H84.0692V37.743L84.0032 39.096L84.1132 40.449V44.134H83.0572ZM86.0602 41.142C86.4342 41.142 86.7678 41.0577 87.0612 40.889C87.3618 40.7203 87.5965 40.482 87.7652 40.174C87.9412 39.8587 88.0292 39.4957 88.0292 39.085C88.0292 38.667 87.9412 38.3077 87.7652 38.007C87.5965 37.699 87.3618 37.4607 87.0612 37.292C86.7678 37.1233 86.4342 37.039 86.0602 37.039C85.6935 37.039 85.3598 37.1233 85.0592 37.292C84.7658 37.4607 84.5312 37.699 84.3552 38.007C84.1865 38.3077 84.1022 38.667 84.1022 39.085C84.1022 39.4957 84.1865 39.8587 84.3552 40.174C84.5312 40.482 84.7658 40.7203 85.0592 40.889C85.3598 41.0577 85.6935 41.142 86.0602 41.142ZM93.1274 42.066C92.5408 42.066 92.0201 41.9377 91.5654 41.681C91.1108 41.4243 90.7514 41.0723 90.4874 40.625C90.2234 40.1703 90.0914 39.657 90.0914 39.085C90.0914 38.5057 90.2234 37.9923 90.4874 37.545C90.7514 37.0977 91.1108 36.7493 91.5654 36.5C92.0201 36.2433 92.5408 36.115 93.1274 36.115C93.7068 36.115 94.2238 36.2433 94.6784 36.5C95.1404 36.7493 95.4998 37.0977 95.7564 37.545C96.0204 37.985 96.1524 38.4983 96.1524 39.085C96.1524 39.6643 96.0204 40.1777 95.7564 40.625C95.4998 41.0723 95.1404 41.4243 94.6784 41.681C94.2238 41.9377 93.7068 42.066 93.1274 42.066ZM93.1274 41.142C93.5014 41.142 93.8351 41.0577 94.1284 40.889C94.4291 40.7203 94.6638 40.482 94.8324 40.174C95.0011 39.8587 95.0854 39.4957 95.0854 39.085C95.0854 38.667 95.0011 38.3077 94.8324 38.007C94.6638 37.699 94.4291 37.4607 94.1284 37.292C93.8351 37.1233 93.5014 37.039 93.1274 37.039C92.7534 37.039 92.4198 37.1233 92.1264 37.292C91.8331 37.4607 91.5984 37.699 91.4224 38.007C91.2464 38.3077 91.1584 38.667 91.1584 39.085C91.1584 39.4957 91.2464 39.8587 91.4224 40.174C91.5984 40.482 91.8331 40.7203 92.1264 40.889C92.4198 41.0577 92.7534 41.142 93.1274 41.142ZM101.153 42.088C101.146 42.088 101.12 42.088 101.076 42.088C101.04 42.088 101.003 42.088 100.966 42.088C100.93 42.088 100.908 42.088 100.9 42.088C99.705 42.0733 98.7773 41.8093 98.1173 41.296C97.4573 40.7753 97.1273 40.0347 97.1273 39.074C97.1273 38.1207 97.4573 37.391 98.1173 36.885C98.7846 36.3717 99.7233 36.1113 100.933 36.104C100.948 36.104 100.97 36.104 100.999 36.104C101.036 36.104 101.069 36.104 101.098 36.104C101.135 36.104 101.157 36.104 101.164 36.104C102.389 36.104 103.339 36.3607 104.013 36.874C104.695 37.3873 105.036 38.1207 105.036 39.074C105.036 40.042 104.695 40.7863 104.013 41.307C103.331 41.8277 102.378 42.088 101.153 42.088ZM101.131 41.164C101.769 41.164 102.297 41.0833 102.715 40.922C103.141 40.7607 103.46 40.526 103.672 40.218C103.885 39.91 103.991 39.5287 103.991 39.074C103.991 38.6267 103.885 38.2527 103.672 37.952C103.46 37.6513 103.141 37.424 102.715 37.27C102.297 37.116 101.769 37.039 101.131 37.039C101.117 37.039 101.087 37.039 101.043 37.039C100.999 37.039 100.974 37.039 100.966 37.039C100.343 37.039 99.8223 37.1197 99.4043 37.281C98.9936 37.435 98.6856 37.6623 98.4803 37.963C98.275 38.2637 98.1723 38.634 98.1723 39.074C98.1723 39.5213 98.275 39.899 98.4803 40.207C98.693 40.515 99.0046 40.7497 99.4153 40.911C99.8333 41.0723 100.35 41.1567 100.966 41.164C100.981 41.164 101.007 41.164 101.043 41.164C101.087 41.164 101.117 41.164 101.131 41.164ZM100.559 44.134V33.838H101.593V44.134H100.559ZM109.125 42.066C108.502 42.066 107.952 41.9377 107.475 41.681C107.006 41.4243 106.639 41.0723 106.375 40.625C106.118 40.1777 105.99 39.6643 105.99 39.085C105.99 38.5057 106.115 37.9923 106.364 37.545C106.621 37.0977 106.969 36.7493 107.409 36.5C107.856 36.2433 108.359 36.115 108.916 36.115C109.481 36.115 109.979 36.2397 110.412 36.489C110.845 36.7383 111.182 37.0903 111.424 37.545C111.673 37.9923 111.798 38.5167 111.798 39.118C111.798 39.162 111.794 39.2133 111.787 39.272C111.787 39.3307 111.783 39.3857 111.776 39.437H106.815V38.678H111.226L110.797 38.942C110.804 38.568 110.727 38.2343 110.566 37.941C110.405 37.6477 110.181 37.4203 109.895 37.259C109.616 37.0903 109.29 37.006 108.916 37.006C108.549 37.006 108.223 37.0903 107.937 37.259C107.651 37.4203 107.427 37.6513 107.266 37.952C107.105 38.2453 107.024 38.5827 107.024 38.964V39.14C107.024 39.5287 107.112 39.877 107.288 40.185C107.471 40.4857 107.724 40.7203 108.047 40.889C108.37 41.0577 108.74 41.142 109.158 41.142C109.503 41.142 109.814 41.0833 110.093 40.966C110.379 40.8487 110.628 40.6727 110.841 40.438L111.424 41.12C111.16 41.428 110.83 41.6627 110.434 41.824C110.045 41.9853 109.609 42.066 109.125 42.066ZM115.977 42.066C115.383 42.066 114.851 41.9377 114.382 41.681C113.92 41.4243 113.557 41.0723 113.293 40.625C113.029 40.1777 112.897 39.6643 112.897 39.085C112.897 38.5057 113.029 37.9923 113.293 37.545C113.557 37.0977 113.92 36.7493 114.382 36.5C114.851 36.2433 115.383 36.115 115.977 36.115C116.505 36.115 116.974 36.2213 117.385 36.434C117.803 36.6393 118.126 36.9473 118.353 37.358L117.55 37.875C117.359 37.589 117.125 37.38 116.846 37.248C116.575 37.1087 116.281 37.039 115.966 37.039C115.585 37.039 115.244 37.1233 114.943 37.292C114.642 37.4607 114.404 37.699 114.228 38.007C114.052 38.3077 113.964 38.667 113.964 39.085C113.964 39.503 114.052 39.866 114.228 40.174C114.404 40.482 114.642 40.7203 114.943 40.889C115.244 41.0577 115.585 41.142 115.966 41.142C116.281 41.142 116.575 41.076 116.846 40.944C117.125 40.8047 117.359 40.592 117.55 40.306L118.353 40.812C118.126 41.2153 117.803 41.527 117.385 41.747C116.974 41.9597 116.505 42.066 115.977 42.066ZM122.175 42.066C121.581 42.066 121.05 41.9377 120.58 41.681C120.118 41.4243 119.755 41.0723 119.491 40.625C119.227 40.1777 119.095 39.6643 119.095 39.085C119.095 38.5057 119.227 37.9923 119.491 37.545C119.755 37.0977 120.118 36.7493 120.58 36.5C121.05 36.2433 121.581 36.115 122.175 36.115C122.703 36.115 123.173 36.2213 123.583 36.434C124.001 36.6393 124.324 36.9473 124.551 37.358L123.748 37.875C123.558 37.589 123.323 37.38 123.044 37.248C122.773 37.1087 122.48 37.039 122.164 37.039C121.783 37.039 121.442 37.1233 121.141 37.292C120.841 37.4607 120.602 37.699 120.426 38.007C120.25 38.3077 120.162 38.667 120.162 39.085C120.162 39.503 120.25 39.866 120.426 40.174C120.602 40.482 120.841 40.7203 121.141 40.889C121.442 41.0577 121.783 41.142 122.164 41.142C122.48 41.142 122.773 41.076 123.044 40.944C123.323 40.8047 123.558 40.592 123.748 40.306L124.551 40.812C124.324 41.2153 124.001 41.527 123.583 41.747C123.173 41.9597 122.703 42.066 122.175 42.066ZM125.919 42V36.17H126.975V40.416L130.55 36.17H131.507V42H130.451V37.754L126.887 42H125.919ZM136.053 42.066C135.467 42.066 134.946 41.9377 134.491 41.681C134.037 41.4243 133.677 41.0723 133.413 40.625C133.149 40.1703 133.017 39.657 133.017 39.085C133.017 38.5057 133.149 37.9923 133.413 37.545C133.677 37.0977 134.037 36.7493 134.491 36.5C134.946 36.2433 135.467 36.115 136.053 36.115C136.633 36.115 137.15 36.2433 137.604 36.5C138.066 36.7493 138.426 37.0977 138.682 37.545C138.946 37.985 139.078 38.4983 139.078 39.085C139.078 39.6643 138.946 40.1777 138.682 40.625C138.426 41.0723 138.066 41.4243 137.604 41.681C137.15 41.9377 136.633 42.066 136.053 42.066ZM136.053 41.142C136.427 41.142 136.761 41.0577 137.054 40.889C137.355 40.7203 137.59 40.482 137.758 40.174C137.927 39.8587 138.011 39.4957 138.011 39.085C138.011 38.667 137.927 38.3077 137.758 38.007C137.59 37.699 137.355 37.4607 137.054 37.292C136.761 37.1233 136.427 37.039 136.053 37.039C135.679 37.039 135.346 37.1233 135.052 37.292C134.759 37.4607 134.524 37.699 134.348 38.007C134.172 38.3077 134.084 38.667 134.084 39.085C134.084 39.4957 134.172 39.8587 134.348 40.174C134.524 40.482 134.759 40.7203 135.052 40.889C135.346 41.0577 135.679 41.142 136.053 41.142ZM140.603 42V36.17H141.659V38.645H144.981V36.17H146.037V42H144.981V39.558H141.659V42H140.603ZM151.665 42V40.768L151.61 40.537V38.436C151.61 37.9887 151.478 37.644 151.214 37.402C150.958 37.1527 150.569 37.028 150.048 37.028C149.704 37.028 149.366 37.0867 149.036 37.204C148.706 37.314 148.428 37.4643 148.2 37.655L147.76 36.863C148.061 36.621 148.42 36.4377 148.838 36.313C149.264 36.181 149.707 36.115 150.169 36.115C150.969 36.115 151.585 36.3093 152.017 36.698C152.45 37.0867 152.666 37.6807 152.666 38.48V42H151.665ZM149.751 42.066C149.319 42.066 148.937 41.9927 148.607 41.846C148.285 41.6993 148.035 41.4977 147.859 41.241C147.683 40.977 147.595 40.68 147.595 40.35C147.595 40.0347 147.669 39.7487 147.815 39.492C147.969 39.2353 148.215 39.03 148.552 38.876C148.897 38.722 149.359 38.645 149.938 38.645H151.786V39.404H149.982C149.454 39.404 149.099 39.492 148.915 39.668C148.732 39.844 148.64 40.0567 148.64 40.306C148.64 40.592 148.754 40.823 148.981 40.999C149.209 41.1677 149.524 41.252 149.927 41.252C150.323 41.252 150.668 41.164 150.961 40.988C151.262 40.812 151.478 40.5553 151.61 40.218L151.819 40.944C151.68 41.2887 151.434 41.5637 151.082 41.769C150.73 41.967 150.287 42.066 149.751 42.066ZM153.6 41.989L153.666 41.098C153.717 41.1053 153.765 41.1127 153.809 41.12C153.853 41.1273 153.893 41.131 153.93 41.131C154.165 41.131 154.348 41.0503 154.48 40.889C154.619 40.7277 154.722 40.515 154.788 40.251C154.854 39.9797 154.902 39.6753 154.931 39.338C154.96 39.0007 154.982 38.6633 154.997 38.326L155.096 36.17H159.573V42H158.517V36.786L158.77 37.094H155.778L156.02 36.775L155.943 38.392C155.921 38.9053 155.881 39.3857 155.822 39.833C155.763 40.2803 155.672 40.6727 155.547 41.01C155.43 41.3473 155.265 41.6113 155.052 41.802C154.847 41.9927 154.579 42.088 154.249 42.088C154.154 42.088 154.051 42.077 153.941 42.055C153.838 42.0403 153.725 42.0183 153.6 41.989ZM164.31 38.15C165.05 38.1573 165.615 38.326 166.004 38.656C166.392 38.986 166.587 39.4517 166.587 40.053C166.587 40.6837 166.374 41.1713 165.949 41.516C165.523 41.8533 164.922 42.0183 164.145 42.011L161.615 42V36.17H162.671V38.139L164.31 38.15ZM164.057 41.208C164.533 41.2153 164.893 41.12 165.135 40.922C165.384 40.724 165.509 40.4307 165.509 40.042C165.509 39.6607 165.388 39.382 165.146 39.206C164.904 39.03 164.541 38.9383 164.057 38.931L162.671 38.909V41.197L164.057 41.208ZM167.942 42V36.17H168.998V38.645H172.32V36.17H173.376V42H172.32V39.558H168.998V42H167.942ZM181.193 42V36.17H182.249V42H181.193ZM178.058 38.15C178.799 38.1573 179.36 38.326 179.741 38.656C180.13 38.986 180.324 39.4517 180.324 40.053C180.324 40.6837 180.112 41.1713 179.686 41.516C179.268 41.8533 178.667 42.0183 177.882 42.011L175.429 42V36.17H176.485V38.139L178.058 38.15ZM177.805 41.208C178.275 41.2153 178.634 41.12 178.883 40.922C179.133 40.724 179.257 40.4307 179.257 40.042C179.257 39.6607 179.133 39.382 178.883 39.206C178.641 39.03 178.282 38.9383 177.805 38.931L176.485 38.909V41.197L177.805 41.208ZM186.898 42.066C186.275 42.066 185.725 41.9377 185.248 41.681C184.779 41.4243 184.412 41.0723 184.148 40.625C183.892 40.1777 183.763 39.6643 183.763 39.085C183.763 38.5057 183.888 37.9923 184.137 37.545C184.394 37.0977 184.742 36.7493 185.182 36.5C185.63 36.2433 186.132 36.115 186.689 36.115C187.254 36.115 187.753 36.2397 188.185 36.489C188.618 36.7383 188.955 37.0903 189.197 37.545C189.447 37.9923 189.571 38.5167 189.571 39.118C189.571 39.162 189.568 39.2133 189.56 39.272C189.56 39.3307 189.557 39.3857 189.549 39.437H184.588V38.678H188.999L188.57 38.942C188.578 38.568 188.501 38.2343 188.339 37.941C188.178 37.6477 187.954 37.4203 187.668 37.259C187.39 37.0903 187.063 37.006 186.689 37.006C186.323 37.006 185.996 37.0903 185.71 37.259C185.424 37.4203 185.201 37.6513 185.039 37.952C184.878 38.2453 184.797 38.5827 184.797 38.964V39.14C184.797 39.5287 184.885 39.877 185.061 40.185C185.245 40.4857 185.498 40.7203 185.82 40.889C186.143 41.0577 186.513 41.142 186.931 41.142C187.276 41.142 187.588 41.0833 187.866 40.966C188.152 40.8487 188.402 40.6727 188.614 40.438L189.197 41.12C188.933 41.428 188.603 41.6627 188.207 41.824C187.819 41.9853 187.382 42.066 186.898 42.066ZM193.196 41.989L193.262 41.098C193.313 41.1053 193.361 41.1127 193.405 41.12C193.449 41.1273 193.489 41.131 193.526 41.131C193.76 41.131 193.944 41.0503 194.076 40.889C194.215 40.7277 194.318 40.515 194.384 40.251C194.45 39.9797 194.497 39.6753 194.527 39.338C194.556 39.0007 194.578 38.6633 194.593 38.326L194.692 36.17H199.169V42H198.113V36.786L198.366 37.094H195.374L195.616 36.775L195.539 38.392C195.517 38.9053 195.476 39.3857 195.418 39.833C195.359 40.2803 195.267 40.6727 195.143 41.01C195.025 41.3473 194.86 41.6113 194.648 41.802C194.442 41.9927 194.175 42.088 193.845 42.088C193.749 42.088 193.647 42.077 193.537 42.055C193.434 42.0403 193.32 42.0183 193.196 41.989ZM204.786 42V40.768L204.731 40.537V38.436C204.731 37.9887 204.599 37.644 204.335 37.402C204.078 37.1527 203.689 37.028 203.169 37.028C202.824 37.028 202.487 37.0867 202.157 37.204C201.827 37.314 201.548 37.4643 201.321 37.655L200.881 36.863C201.181 36.621 201.541 36.4377 201.959 36.313C202.384 36.181 202.828 36.115 203.29 36.115C204.089 36.115 204.705 36.3093 205.138 36.698C205.57 37.0867 205.787 37.6807 205.787 38.48V42H204.786ZM202.872 42.066C202.439 42.066 202.058 41.9927 201.728 41.846C201.405 41.6993 201.156 41.4977 200.98 41.241C200.804 40.977 200.716 40.68 200.716 40.35C200.716 40.0347 200.789 39.7487 200.936 39.492C201.09 39.2353 201.335 39.03 201.673 38.876C202.017 38.722 202.479 38.645 203.059 38.645H204.907V39.404H203.103C202.575 39.404 202.219 39.492 202.036 39.668C201.852 39.844 201.761 40.0567 201.761 40.306C201.761 40.592 201.874 40.823 202.102 40.999C202.329 41.1677 202.644 41.252 203.048 41.252C203.444 41.252 203.788 41.164 204.082 40.988C204.382 40.812 204.599 40.5553 204.731 40.218L204.94 40.944C204.8 41.2887 204.555 41.5637 204.203 41.769C203.851 41.967 203.407 42.066 202.872 42.066ZM211.912 42L209.657 39.162L210.526 38.634L213.155 42H211.912ZM207.688 42V36.17H208.744V42H207.688ZM208.425 39.536V38.634H210.35V39.536H208.425ZM210.614 39.206L209.635 39.074L211.868 36.17H213.001L210.614 39.206ZM216.566 42.066C215.979 42.066 215.459 41.9377 215.004 41.681C214.549 41.4243 214.19 41.0723 213.926 40.625C213.662 40.1703 213.53 39.657 213.53 39.085C213.53 38.5057 213.662 37.9923 213.926 37.545C214.19 37.0977 214.549 36.7493 215.004 36.5C215.459 36.2433 215.979 36.115 216.566 36.115C217.145 36.115 217.662 36.2433 218.117 36.5C218.579 36.7493 218.938 37.0977 219.195 37.545C219.459 37.985 219.591 38.4983 219.591 39.085C219.591 39.6643 219.459 40.1777 219.195 40.625C218.938 41.0723 218.579 41.4243 218.117 41.681C217.662 41.9377 217.145 42.066 216.566 42.066ZM216.566 41.142C216.94 41.142 217.274 41.0577 217.567 40.889C217.868 40.7203 218.102 40.482 218.271 40.174C218.44 39.8587 218.524 39.4957 218.524 39.085C218.524 38.667 218.44 38.3077 218.271 38.007C218.102 37.699 217.868 37.4607 217.567 37.292C217.274 37.1233 216.94 37.039 216.566 37.039C216.192 37.039 215.858 37.1233 215.565 37.292C215.272 37.4607 215.037 37.699 214.861 38.007C214.685 38.3077 214.597 38.667 214.597 39.085C214.597 39.4957 214.685 39.8587 214.861 40.174C215.037 40.482 215.272 40.7203 215.565 40.889C215.858 41.0577 216.192 41.142 216.566 41.142ZM220.827 39.437V38.524H223.786V39.437H220.827ZM78.247 57L75.992 54.162L76.861 53.634L79.49 57H78.247ZM74.023 57V51.17H75.079V57H74.023ZM74.76 54.536V53.634H76.685V54.536H74.76ZM76.949 54.206L75.97 54.074L78.203 51.17H79.336L76.949 54.206ZM83.6882 57.066C83.2042 57.066 82.7606 56.956 82.3572 56.736C81.9612 56.5087 81.6422 56.175 81.4002 55.735C81.1656 55.295 81.0482 54.745 81.0482 54.085C81.0482 53.425 81.1619 52.875 81.3892 52.435C81.6239 51.995 81.9392 51.665 82.3352 51.445C82.7386 51.225 83.1896 51.115 83.6882 51.115C84.2602 51.115 84.7662 51.2397 85.2062 51.489C85.6462 51.7383 85.9946 52.0867 86.2512 52.534C86.5079 52.974 86.6362 53.491 86.6362 54.085C86.6362 54.679 86.5079 55.1997 86.2512 55.647C85.9946 56.0943 85.6462 56.4427 85.2062 56.692C84.7662 56.9413 84.2602 57.066 83.6882 57.066ZM80.5972 59.134V51.17H81.6092V52.743L81.5432 54.096L81.6532 55.449V59.134H80.5972ZM83.6002 56.142C83.9742 56.142 84.3079 56.0577 84.6012 55.889C84.9019 55.7203 85.1366 55.482 85.3052 55.174C85.4812 54.8587 85.5692 54.4957 85.5692 54.085C85.5692 53.667 85.4812 53.3077 85.3052 53.007C85.1366 52.699 84.9019 52.4607 84.6012 52.292C84.3079 52.1233 83.9742 52.039 83.6002 52.039C83.2336 52.039 82.8999 52.1233 82.5992 52.292C82.3059 52.4607 82.0712 52.699 81.8952 53.007C81.7266 53.3077 81.6422 53.667 81.6422 54.085C81.6422 54.4957 81.7266 54.8587 81.8952 55.174C82.0712 55.482 82.3059 55.7203 82.5992 55.889C82.8999 56.0577 83.2336 56.142 83.6002 56.142ZM91.6918 57V55.768L91.6368 55.537V53.436C91.6368 52.9887 91.5048 52.644 91.2408 52.402C90.9841 52.1527 90.5954 52.028 90.0748 52.028C89.7301 52.028 89.3928 52.0867 89.0628 52.204C88.7328 52.314 88.4541 52.4643 88.2268 52.655L87.7868 51.863C88.0874 51.621 88.4468 51.4377 88.8648 51.313C89.2901 51.181 89.7338 51.115 90.1958 51.115C90.9951 51.115 91.6111 51.3093 92.0438 51.698C92.4764 52.0867 92.6928 52.6807 92.6928 53.48V57H91.6918ZM89.7778 57.066C89.3451 57.066 88.9638 56.9927 88.6338 56.846C88.3111 56.6993 88.0618 56.4977 87.8858 56.241C87.7098 55.977 87.6218 55.68 87.6218 55.35C87.6218 55.0347 87.6951 54.7487 87.8418 54.492C87.9958 54.2353 88.2414 54.03 88.5788 53.876C88.9234 53.722 89.3854 53.645 89.9648 53.645H91.8128V54.404H90.0088C89.4808 54.404 89.1251 54.492 88.9418 54.668C88.7584 54.844 88.6668 55.0567 88.6668 55.306C88.6668 55.592 88.7804 55.823 89.0078 55.999C89.2351 56.1677 89.5504 56.252 89.9538 56.252C90.3498 56.252 90.6944 56.164 90.9878 55.988C91.2884 55.812 91.5048 55.5553 91.6368 55.218L91.8458 55.944C91.7064 56.2887 91.4608 56.5637 91.1088 56.769C90.7568 56.967 90.3131 57.066 89.7778 57.066ZM97.1353 57.066C96.5413 57.066 96.0096 56.9377 95.5403 56.681C95.0783 56.4243 94.7153 56.0723 94.4513 55.625C94.1873 55.1777 94.0553 54.6643 94.0553 54.085C94.0553 53.5057 94.1873 52.9923 94.4513 52.545C94.7153 52.0977 95.0783 51.7493 95.5403 51.5C96.0096 51.2433 96.5413 51.115 97.1353 51.115C97.6633 51.115 98.1326 51.2213 98.5433 51.434C98.9613 51.6393 99.284 51.9473 99.5113 52.358L98.7083 52.875C98.5176 52.589 98.283 52.38 98.0043 52.248C97.733 52.1087 97.4396 52.039 97.1243 52.039C96.743 52.039 96.402 52.1233 96.1013 52.292C95.8006 52.4607 95.5623 52.699 95.3863 53.007C95.2103 53.3077 95.1223 53.667 95.1223 54.085C95.1223 54.503 95.2103 54.866 95.3863 55.174C95.5623 55.482 95.8006 55.7203 96.1013 55.889C96.402 56.0577 96.743 56.142 97.1243 56.142C97.4396 56.142 97.733 56.076 98.0043 55.944C98.283 55.8047 98.5176 55.592 98.7083 55.306L99.5113 55.812C99.284 56.2153 98.9613 56.527 98.5433 56.747C98.1326 56.9597 97.6633 57.066 97.1353 57.066ZM103.29 57.066C102.703 57.066 102.182 56.9377 101.728 56.681C101.273 56.4243 100.914 56.0723 100.65 55.625C100.386 55.1703 100.254 54.657 100.254 54.085C100.254 53.5057 100.386 52.9923 100.65 52.545C100.914 52.0977 101.273 51.7493 101.728 51.5C102.182 51.2433 102.703 51.115 103.29 51.115C103.869 51.115 104.386 51.2433 104.841 51.5C105.303 51.7493 105.662 52.0977 105.919 52.545C106.183 52.985 106.315 53.4983 106.315 54.085C106.315 54.6643 106.183 55.1777 105.919 55.625C105.662 56.0723 105.303 56.4243 104.841 56.681C104.386 56.9377 103.869 57.066 103.29 57.066ZM103.29 56.142C103.664 56.142 103.997 56.0577 104.291 55.889C104.591 55.7203 104.826 55.482 104.995 55.174C105.163 54.8587 105.248 54.4957 105.248 54.085C105.248 53.667 105.163 53.3077 104.995 53.007C104.826 52.699 104.591 52.4607 104.291 52.292C103.997 52.1233 103.664 52.039 103.29 52.039C102.916 52.039 102.582 52.1233 102.289 52.292C101.995 52.4607 101.761 52.699 101.585 53.007C101.409 53.3077 101.321 53.667 101.321 54.085C101.321 54.4957 101.409 54.8587 101.585 55.174C101.761 55.482 101.995 55.7203 102.289 55.889C102.582 56.0577 102.916 56.142 103.29 56.142ZM111.513 54.613C111.205 54.7597 110.886 54.877 110.556 54.965C110.234 55.0457 109.9 55.086 109.555 55.086C108.851 55.086 108.294 54.921 107.883 54.591C107.48 54.261 107.278 53.7513 107.278 53.062V51.17H108.334V52.996C108.334 53.414 108.463 53.722 108.719 53.92C108.983 54.118 109.335 54.217 109.775 54.217C110.054 54.217 110.34 54.1803 110.633 54.107C110.934 54.0337 111.227 53.931 111.513 53.799V54.613ZM111.436 57V51.17H112.492V57H111.436ZM114.543 57V51.17H115.599V53.645H118.921V51.17H119.977V57H118.921V54.558H115.599V57H114.543ZM127.794 57V51.17H128.85V57H127.794ZM124.659 53.15C125.4 53.1573 125.961 53.326 126.342 53.656C126.731 53.986 126.925 54.4517 126.925 55.053C126.925 55.6837 126.712 56.1713 126.287 56.516C125.869 56.8533 125.268 57.0183 124.483 57.011L122.03 57V51.17H123.086V53.139L124.659 53.15ZM124.406 56.208C124.875 56.2153 125.235 56.12 125.484 55.922C125.733 55.724 125.858 55.4307 125.858 55.042C125.858 54.6607 125.733 54.382 125.484 54.206C125.242 54.03 124.883 53.9383 124.406 53.931L123.086 53.909V56.197L124.406 56.208ZM133.499 57.066C132.876 57.066 132.326 56.9377 131.849 56.681C131.38 56.4243 131.013 56.0723 130.749 55.625C130.492 55.1777 130.364 54.6643 130.364 54.085C130.364 53.5057 130.489 52.9923 130.738 52.545C130.995 52.0977 131.343 51.7493 131.783 51.5C132.23 51.2433 132.733 51.115 133.29 51.115C133.855 51.115 134.353 51.2397 134.786 51.489C135.219 51.7383 135.556 52.0903 135.798 52.545C136.047 52.9923 136.172 53.5167 136.172 54.118C136.172 54.162 136.168 54.2133 136.161 54.272C136.161 54.3307 136.157 54.3857 136.15 54.437H131.189V53.678H135.6L135.171 53.942C135.178 53.568 135.101 53.2343 134.94 52.941C134.779 52.6477 134.555 52.4203 134.269 52.259C133.99 52.0903 133.664 52.006 133.29 52.006C132.923 52.006 132.597 52.0903 132.311 52.259C132.025 52.4203 131.801 52.6513 131.64 52.952C131.479 53.2453 131.398 53.5827 131.398 53.964V54.14C131.398 54.5287 131.486 54.877 131.662 55.185C131.845 55.4857 132.098 55.7203 132.421 55.889C132.744 56.0577 133.114 56.142 133.532 56.142C133.877 56.142 134.188 56.0833 134.467 55.966C134.753 55.8487 135.002 55.6727 135.215 55.438L135.798 56.12C135.534 56.428 135.204 56.6627 134.808 56.824C134.419 56.9853 133.983 57.066 133.499 57.066ZM140.764 57V51.17H141.853L144.361 55.482H143.921L146.495 51.17H147.485V57H146.528V52.358L146.704 52.457L144.35 56.34H143.888L141.523 52.38L141.732 52.336V57H140.764ZM153.116 57V55.768L153.061 55.537V53.436C153.061 52.9887 152.929 52.644 152.665 52.402C152.408 52.1527 152.019 52.028 151.499 52.028C151.154 52.028 150.817 52.0867 150.487 52.204C150.157 52.314 149.878 52.4643 149.651 52.655L149.211 51.863C149.511 51.621 149.871 51.4377 150.289 51.313C150.714 51.181 151.158 51.115 151.62 51.115C152.419 51.115 153.035 51.3093 153.468 51.698C153.9 52.0867 154.117 52.6807 154.117 53.48V57H153.116ZM151.202 57.066C150.769 57.066 150.388 56.9927 150.058 56.846C149.735 56.6993 149.486 56.4977 149.31 56.241C149.134 55.977 149.046 55.68 149.046 55.35C149.046 55.0347 149.119 54.7487 149.266 54.492C149.42 54.2353 149.665 54.03 150.003 53.876C150.347 53.722 150.809 53.645 151.389 53.645H153.237V54.404H151.433C150.905 54.404 150.549 54.492 150.366 54.668C150.182 54.844 150.091 55.0567 150.091 55.306C150.091 55.592 150.204 55.823 150.432 55.999C150.659 56.1677 150.974 56.252 151.378 56.252C151.774 56.252 152.118 56.164 152.412 55.988C152.712 55.812 152.929 55.5553 153.061 55.218L153.27 55.944C153.13 56.2887 152.885 56.5637 152.533 56.769C152.181 56.967 151.737 57.066 151.202 57.066ZM157.173 57V51.819L157.437 52.094H155.039V51.17H160.363V52.094H157.976L158.229 51.819V57H157.173ZM163.781 57.066C163.158 57.066 162.608 56.9377 162.131 56.681C161.662 56.4243 161.295 56.0723 161.031 55.625C160.774 55.1777 160.646 54.6643 160.646 54.085C160.646 53.5057 160.771 52.9923 161.02 52.545C161.277 52.0977 161.625 51.7493 162.065 51.5C162.512 51.2433 163.015 51.115 163.572 51.115C164.137 51.115 164.635 51.2397 165.068 51.489C165.501 51.7383 165.838 52.0903 166.08 52.545C166.329 52.9923 166.454 53.5167 166.454 54.118C166.454 54.162 166.45 54.2133 166.443 54.272C166.443 54.3307 166.439 54.3857 166.432 54.437H161.471V53.678H165.882L165.453 53.942C165.46 53.568 165.383 53.2343 165.222 52.941C165.061 52.6477 164.837 52.4203 164.551 52.259C164.272 52.0903 163.946 52.006 163.572 52.006C163.205 52.006 162.879 52.0903 162.593 52.259C162.307 52.4203 162.083 52.6513 161.922 52.952C161.761 53.2453 161.68 53.5827 161.68 53.964V54.14C161.68 54.5287 161.768 54.877 161.944 55.185C162.127 55.4857 162.38 55.7203 162.703 55.889C163.026 56.0577 163.396 56.142 163.814 56.142C164.159 56.142 164.47 56.0833 164.749 55.966C165.035 55.8487 165.284 55.6727 165.497 55.438L166.08 56.12C165.816 56.428 165.486 56.6627 165.09 56.824C164.701 56.9853 164.265 57.066 163.781 57.066ZM171.183 57.066C170.699 57.066 170.256 56.956 169.852 56.736C169.456 56.5087 169.137 56.175 168.895 55.735C168.661 55.295 168.543 54.745 168.543 54.085C168.543 53.425 168.657 52.875 168.884 52.435C169.119 51.995 169.434 51.665 169.83 51.445C170.234 51.225 170.685 51.115 171.183 51.115C171.755 51.115 172.261 51.2397 172.701 51.489C173.141 51.7383 173.49 52.0867 173.746 52.534C174.003 52.974 174.131 53.491 174.131 54.085C174.131 54.679 174.003 55.1997 173.746 55.647C173.49 56.0943 173.141 56.4427 172.701 56.692C172.261 56.9413 171.755 57.066 171.183 57.066ZM168.092 59.134V51.17H169.104V52.743L169.038 54.096L169.148 55.449V59.134H168.092ZM171.095 56.142C171.469 56.142 171.803 56.0577 172.096 55.889C172.397 55.7203 172.632 55.482 172.8 55.174C172.976 54.8587 173.064 54.4957 173.064 54.085C173.064 53.667 172.976 53.3077 172.8 53.007C172.632 52.699 172.397 52.4607 172.096 52.292C171.803 52.1233 171.469 52.039 171.095 52.039C170.729 52.039 170.395 52.1233 170.094 52.292C169.801 52.4607 169.566 52.699 169.39 53.007C169.222 53.3077 169.137 53.667 169.137 54.085C169.137 54.4957 169.222 54.8587 169.39 55.174C169.566 55.482 169.801 55.7203 170.094 55.889C170.395 56.0577 170.729 56.142 171.095 56.142ZM175.666 57V51.17H176.722V55.416L180.297 51.17H181.254V57H180.198V52.754L176.634 57H175.666ZM186.878 57V55.768L186.823 55.537V53.436C186.823 52.9887 186.691 52.644 186.427 52.402C186.171 52.1527 185.782 52.028 185.261 52.028C184.917 52.028 184.579 52.0867 184.249 52.204C183.919 52.314 183.641 52.4643 183.413 52.655L182.973 51.863C183.274 51.621 183.633 51.4377 184.051 51.313C184.477 51.181 184.92 51.115 185.382 51.115C186.182 51.115 186.798 51.3093 187.23 51.698C187.663 52.0867 187.879 52.6807 187.879 53.48V57H186.878ZM184.964 57.066C184.532 57.066 184.15 56.9927 183.82 56.846C183.498 56.6993 183.248 56.4977 183.072 56.241C182.896 55.977 182.808 55.68 182.808 55.35C182.808 55.0347 182.882 54.7487 183.028 54.492C183.182 54.2353 183.428 54.03 183.765 53.876C184.11 53.722 184.572 53.645 185.151 53.645H186.999V54.404H185.195C184.667 54.404 184.312 54.492 184.128 54.668C183.945 54.844 183.853 55.0567 183.853 55.306C183.853 55.592 183.967 55.823 184.194 55.999C184.422 56.1677 184.737 56.252 185.14 56.252C185.536 56.252 185.881 56.164 186.174 55.988C186.475 55.812 186.691 55.5553 186.823 55.218L187.032 55.944C186.893 56.2887 186.647 56.5637 186.295 56.769C185.943 56.967 185.5 57.066 184.964 57.066ZM188.813 56.989L188.879 56.098C188.93 56.1053 188.978 56.1127 189.022 56.12C189.066 56.1273 189.106 56.131 189.143 56.131C189.377 56.131 189.561 56.0503 189.693 55.889C189.832 55.7277 189.935 55.515 190.001 55.251C190.067 54.9797 190.114 54.6753 190.144 54.338C190.173 54.0007 190.195 53.6633 190.21 53.326L190.309 51.17H194.786V57H193.73V51.786L193.983 52.094H190.991L191.233 51.775L191.156 53.392C191.134 53.9053 191.093 54.3857 191.035 54.833C190.976 55.2803 190.884 55.6727 190.76 56.01C190.642 56.3473 190.477 56.6113 190.265 56.802C190.059 56.9927 189.792 57.088 189.462 57.088C189.366 57.088 189.264 57.077 189.154 57.055C189.051 57.0403 188.937 57.0183 188.813 56.989ZM202.592 57V51.17H203.648V57H202.592ZM199.457 53.15C200.197 53.1573 200.758 53.326 201.14 53.656C201.528 53.986 201.723 54.4517 201.723 55.053C201.723 55.6837 201.51 56.1713 201.085 56.516C200.667 56.8533 200.065 57.0183 199.281 57.011L196.828 57V51.17H197.884V53.139L199.457 53.15ZM199.204 56.208C199.673 56.2153 200.032 56.12 200.282 55.922C200.531 55.724 200.656 55.4307 200.656 55.042C200.656 54.6607 200.531 54.382 200.282 54.206C200.04 54.03 199.68 53.9383 199.204 53.931L197.884 53.909V56.197L199.204 56.208ZM211.196 57.066C210.602 57.066 210.07 56.9377 209.601 56.681C209.139 56.4243 208.776 56.0723 208.512 55.625C208.248 55.1777 208.116 54.6643 208.116 54.085C208.116 53.5057 208.248 52.9923 208.512 52.545C208.776 52.0977 209.139 51.7493 209.601 51.5C210.07 51.2433 210.602 51.115 211.196 51.115C211.724 51.115 212.193 51.2213 212.604 51.434C213.022 51.6393 213.345 51.9473 213.572 52.358L212.769 52.875C212.578 52.589 212.344 52.38 212.065 52.248C211.794 52.1087 211.5 52.039 211.185 52.039C210.804 52.039 210.463 52.1233 210.162 52.292C209.861 52.4607 209.623 52.699 209.447 53.007C209.271 53.3077 209.183 53.667 209.183 54.085C209.183 54.503 209.271 54.866 209.447 55.174C209.623 55.482 209.861 55.7203 210.162 55.889C210.463 56.0577 210.804 56.142 211.185 56.142C211.5 56.142 211.794 56.076 212.065 55.944C212.344 55.8047 212.578 55.592 212.769 55.306L213.572 55.812C213.345 56.2153 213.022 56.527 212.604 56.747C212.193 56.9597 211.724 57.066 211.196 57.066ZM218.696 57V49.74L219.169 50.257H216.958V49.3H219.785V57H218.696ZM223.966 49.212C224.663 49.212 225.25 49.3623 225.726 49.663C226.21 49.9637 226.577 50.4 226.826 50.972C227.076 51.5367 227.2 52.2297 227.2 53.051C227.2 53.9237 227.046 54.6607 226.738 55.262C226.43 55.8633 226.005 56.318 225.462 56.626C224.92 56.934 224.285 57.088 223.559 57.088C223.2 57.088 222.852 57.0513 222.514 56.978C222.184 56.9047 221.895 56.791 221.645 56.637L222.063 55.779C222.269 55.911 222.496 56.0063 222.745 56.065C223.002 56.1163 223.27 56.142 223.548 56.142C224.326 56.142 224.945 55.9 225.407 55.416C225.869 54.9247 226.1 54.1987 226.1 53.238C226.1 53.084 226.093 52.9007 226.078 52.688C226.064 52.4753 226.031 52.2663 225.979 52.061L226.342 52.435C226.24 52.7723 226.067 53.0583 225.825 53.293C225.591 53.5203 225.305 53.6927 224.967 53.81C224.637 53.92 224.274 53.975 223.878 53.975C223.372 53.975 222.921 53.8797 222.525 53.689C222.129 53.4983 221.818 53.2307 221.59 52.886C221.363 52.534 221.249 52.1197 221.249 51.643C221.249 51.1443 221.367 50.7153 221.601 50.356C221.843 49.9893 222.17 49.707 222.58 49.509C222.998 49.311 223.46 49.212 223.966 49.212ZM224.01 50.103C223.68 50.103 223.387 50.1653 223.13 50.29C222.874 50.4147 222.672 50.587 222.525 50.807C222.386 51.027 222.316 51.291 222.316 51.599C222.316 52.0537 222.474 52.4167 222.789 52.688C223.105 52.952 223.53 53.084 224.065 53.084C224.417 53.084 224.725 53.018 224.989 52.886C225.261 52.754 225.47 52.5743 225.616 52.347C225.77 52.1197 225.847 51.8667 225.847 51.588C225.847 51.3167 225.778 51.071 225.638 50.851C225.499 50.631 225.294 50.4513 225.022 50.312C224.751 50.1727 224.414 50.103 224.01 50.103ZM230.755 49.212C231.452 49.212 232.039 49.3623 232.515 49.663C232.999 49.9637 233.366 50.4 233.615 50.972C233.865 51.5367 233.989 52.2297 233.989 53.051C233.989 53.9237 233.835 54.6607 233.527 55.262C233.219 55.8633 232.794 56.318 232.251 56.626C231.709 56.934 231.074 57.088 230.348 57.088C229.989 57.088 229.641 57.0513 229.303 56.978C228.973 56.9047 228.684 56.791 228.434 56.637L228.852 55.779C229.058 55.911 229.285 56.0063 229.534 56.065C229.791 56.1163 230.059 56.142 230.337 56.142C231.115 56.142 231.734 55.9 232.196 55.416C232.658 54.9247 232.889 54.1987 232.889 53.238C232.889 53.084 232.882 52.9007 232.867 52.688C232.853 52.4753 232.82 52.2663 232.768 52.061L233.131 52.435C233.029 52.7723 232.856 53.0583 232.614 53.293C232.38 53.5203 232.094 53.6927 231.756 53.81C231.426 53.92 231.063 53.975 230.667 53.975C230.161 53.975 229.71 53.8797 229.314 53.689C228.918 53.4983 228.607 53.2307 228.379 52.886C228.152 52.534 228.038 52.1197 228.038 51.643C228.038 51.1443 228.156 50.7153 228.39 50.356C228.632 49.9893 228.959 49.707 229.369 49.509C229.787 49.311 230.249 49.212 230.755 49.212ZM230.799 50.103C230.469 50.103 230.176 50.1653 229.919 50.29C229.663 50.4147 229.461 50.587 229.314 50.807C229.175 51.027 229.105 51.291 229.105 51.599C229.105 52.0537 229.263 52.4167 229.578 52.688C229.894 52.952 230.319 53.084 230.854 53.084C231.206 53.084 231.514 53.018 231.778 52.886C232.05 52.754 232.259 52.5743 232.405 52.347C232.559 52.1197 232.636 51.8667 232.636 51.588C232.636 51.3167 232.567 51.071 232.427 50.851C232.288 50.631 232.083 50.4513 231.811 50.312C231.54 50.1727 231.203 50.103 230.799 50.103ZM234.927 57V56.252L238.062 53.227C238.34 52.963 238.546 52.732 238.678 52.534C238.817 52.3287 238.909 52.1417 238.953 51.973C239.004 51.797 239.03 51.6283 239.03 51.467C239.03 51.071 238.89 50.7593 238.612 50.532C238.333 50.3047 237.926 50.191 237.391 50.191C236.98 50.191 236.61 50.2607 236.28 50.4C235.95 50.532 235.664 50.741 235.422 51.027L234.674 50.378C234.967 50.004 235.359 49.718 235.851 49.52C236.349 49.3147 236.896 49.212 237.49 49.212C238.025 49.212 238.491 49.3 238.887 49.476C239.283 49.6447 239.587 49.8903 239.8 50.213C240.02 50.5357 240.13 50.917 240.13 51.357C240.13 51.6063 240.097 51.852 240.031 52.094C239.965 52.336 239.84 52.5927 239.657 52.864C239.473 53.1353 239.209 53.4397 238.865 53.777L236.071 56.472L235.807 56.043H240.46V57H234.927ZM244.813 57V51.17H249.103V52.094H245.616L245.869 51.852V57H244.813Z" fill="black"/>
<path d="M21.017 10.6121C23.0457 10.6121 24.6903 8.96756 24.6903 6.93888C24.6903 4.9102 23.0457 3.26562 21.017 3.26562C18.9883 3.26562 17.3438 4.9102 17.3438 6.93888C17.3438 8.96756 18.9883 10.6121 21.017 10.6121Z" fill="#F2A93B"/>
<path d="M35.5554 21.6313C37.0767 21.6313 38.31 20.398 38.31 18.8767C38.31 17.3554 37.0767 16.1221 35.5554 16.1221C34.0341 16.1221 32.8008 17.3554 32.8008 18.8767C32.8008 20.398 34.0341 21.6313 35.5554 21.6313Z" fill="#F2A93B"/>
<path d="M20.2497 44.436C21.1794 44.436 21.933 43.6823 21.933 42.7526C21.933 41.823 21.1794 41.0693 20.2497 41.0693C19.3201 41.0693 18.5664 41.823 18.5664 42.7526C18.5664 43.6823 19.3201 44.436 20.2497 44.436Z" fill="#F2A93B"/>
<path d="M51.8317 31.0693C56.1395 25.7003 57.8028 20.3537 55.7453 16.4827C53.5363 12.3276 47.5202 10.777 39.9321 11.7269C37.2113 4.58312 33.0174 0 28.3129 0C26.0311 0.0842499 23.8696 1.04486 22.278 2.68204C23.0609 2.91476 23.7646 3.35875 24.3117 3.96525C24.8588 4.57175 25.2282 5.31729 25.3793 6.12C26.3059 5.72028 27.3037 5.5117 28.3129 5.50675C31.7959 5.50675 34.9711 8.01733 37.3627 12.1399C34.2738 12.7444 31.2451 13.624 28.3129 14.7681C25.3807 13.6237 22.352 12.7441 19.263 12.1399C19.4474 11.822 19.6368 11.5141 19.8312 11.2163C18.9258 10.9645 18.1235 10.4321 17.5397 9.69564C17.2435 10.3489 16.9611 11.0277 16.6924 11.7319C9.10309 10.7782 3.08822 12.3289 0.876755 16.484C-1.17952 20.355 0.483774 25.7015 4.79155 31.0693C0.483774 36.4384 -1.17952 41.785 0.876755 45.6572C3.08571 49.8123 9.10184 51.363 16.6899 50.4131C19.4107 57.5618 23.6034 62.1449 28.3091 62.1449C33.0149 62.1449 37.2088 57.5618 39.9284 50.4131C47.5177 51.368 53.5326 49.8161 55.7415 45.6572C57.8028 41.785 56.1408 36.4384 51.8317 31.0693ZM18.1867 14.2187C20.8795 14.3917 23.5431 14.8768 26.124 15.6642C24.537 16.3475 22.9375 17.1135 21.3418 17.962C19.4195 18.9845 17.596 20.0759 15.8814 21.216C16.3969 18.8077 17.1698 16.4618 18.1867 14.2187ZM5.74397 19.0696C7.37973 15.9946 11.0868 14.3701 15.8464 14.1886C15.0186 16.9019 14.4142 19.6783 14.0391 22.4901C11.3677 24.3958 8.88759 26.5565 6.63381 28.9417C4.71146 25.3273 4.27467 21.8343 5.74397 19.0696ZM13.7776 37.4209C11.5614 35.5685 9.59769 33.4336 7.93666 31.0706C9.59769 28.7076 11.5614 26.5727 13.7776 24.7203C13.5736 26.7703 13.4672 28.8942 13.4672 31.0706C13.4672 33.247 13.5736 35.3709 13.7776 37.4209ZM5.74397 43.0703C4.27467 40.3069 4.71146 36.8126 6.63882 33.1995C8.89104 35.5833 11.3694 37.7427 14.0391 39.6474C14.4144 42.4591 15.0188 45.2355 15.8464 47.9488C11.0868 47.7698 7.38473 46.1453 5.74397 43.0703ZM15.8814 40.9239C16.5289 41.3553 17.1913 41.7787 17.8688 42.1942C17.9793 41.7247 18.2262 41.2984 18.5785 40.969C17.4888 40.2698 16.4521 39.5431 15.4684 38.7888C14.6339 33.678 14.6339 28.4657 15.4684 23.3549C19.3683 20.3879 23.6996 18.0357 28.3116 16.3801C29.5857 16.8344 30.871 17.3588 32.1601 17.952C32.2827 17.4971 32.4955 17.0715 32.7859 16.7005C32.0216 16.3359 31.259 15.9892 30.4981 15.6604C33.0791 14.8735 35.7426 14.3885 38.4353 14.2149C39.4525 16.4584 40.2254 18.8047 40.7406 21.2135C40.1349 20.8097 39.515 20.4125 38.8808 20.022C38.7246 20.4737 38.478 20.8889 38.1562 21.2423C39.205 21.919 40.2037 22.6211 41.1524 23.3486C41.5725 25.8994 41.7818 28.4804 41.7781 31.0656C41.7818 33.6507 41.5725 36.2318 41.1524 38.7825C39.0976 40.3509 36.9172 41.7473 34.6331 42.9577C32.5967 44.0439 30.4834 44.9796 28.3104 45.7573C26.368 45.0645 24.4732 44.2446 22.6384 43.3031C22.5344 43.7601 22.3011 44.1776 21.9664 44.5058C23.3556 45.225 24.7423 45.8833 26.1265 46.4807C23.5455 47.2676 20.8819 47.7527 18.1892 47.9263C17.1702 45.6824 16.3965 43.3339 15.8814 40.9239ZM28.3116 56.6307C24.8286 56.6307 21.6535 54.1201 19.263 49.9975C22.3516 49.3932 25.3799 48.5137 28.3116 47.3693C31.2433 48.5139 34.2716 49.3935 37.3602 49.9975C34.9698 54.1201 31.7884 56.6307 28.3116 56.6307ZM38.4366 47.9225C35.7438 47.7495 33.0802 47.2644 30.4993 46.477C32.0863 45.7936 33.6857 45.0277 35.2814 44.1792C37.2038 43.1567 39.0273 42.0653 40.7419 40.9252C40.2265 43.333 39.4541 45.6784 38.4378 47.9212L38.4366 47.9225ZM50.8793 43.0703C49.2435 46.1453 45.5365 47.7698 40.7769 47.9513C41.6047 45.2381 42.2091 42.4617 42.5841 39.6499C45.2538 37.7452 47.7322 35.5858 49.9845 33.202C51.9118 36.8126 52.3486 40.3069 50.8793 43.0703ZM42.8482 24.7203C45.0627 26.5728 47.0251 28.7073 48.6854 31.0693C47.0257 33.4326 45.0632 35.568 42.8482 37.4209C43.051 35.3696 43.1586 33.247 43.1586 31.0706C43.1586 28.8942 43.0535 26.7703 42.8482 24.7203ZM49.982 28.9417C47.7295 26.5582 45.2511 24.3988 42.5816 22.4938C42.2064 19.6821 41.602 16.9057 40.7744 14.1924C45.5302 14.3701 49.241 15.9946 50.8768 19.0734C52.3499 21.8343 51.9118 25.3273 49.9857 28.9417H49.982Z" fill="#9E211B"/>
</g>
<defs>
<clipPath id="clip0_2038_11726">
<rect width="248.8" height="62.1399" fill="white"/>
</clipPath>
</defs>
</svg>
